<svg width="27" height="27" viewBox="0 0 27 27" fill="none" xmlns="http://www.w3.org/2000/svg">
<path d="M23.625 8.19V5.625C23.625 4.3875 22.6125 3.375 21.375 3.375H5.625C4.37625 3.375 3.375 4.3875 3.375 5.625V21.375C3.375 22.6125 4.37625 23.625 5.625 23.625H21.375C22.6125 23.625 23.625 22.6125 23.625 21.375V18.81C24.2887 18.4162 24.75 17.7075 24.75 16.875V10.125C24.75 9.2925 24.2887 8.58375 23.625 8.19ZM22.5 10.125V16.875H14.625V10.125H22.5ZM5.625 21.375V5.625H21.375V7.875H14.625C13.3875 7.875 12.375 8.8875 12.375 10.125V16.875C12.375 18.1125 13.3875 19.125 14.625 19.125H21.375V21.375H5.625Z" fill="#4C5969"/>
<path d="M18 15.1875C18.932 15.1875 19.6875 14.432 19.6875 13.5C19.6875 12.568 18.932 11.8125 18 11.8125C17.068 11.8125 16.3125 12.568 16.3125 13.5C16.3125 14.432 17.068 15.1875 18 15.1875Z" fill="#4C5969"/>
</svg>
